<svg width="1600" height="1200" viewBox="0 0 1600 1200" fill="none" xmlns="http://www.w3.org/2000/svg">
  <rect width="1600" height="1200" fill="url(#paint0_linear_2_1)"/>
  <g opacity="0.35">
    <path d="M312.104 225.913C353.407 165.587 421.457 128 494.17 128H1097.83C1170.54 128 1238.59 165.587 1279.9 225.913L1502.87 551.087C1546.75 614.977 1546.75 700.023 1502.87 763.913L1279.9 1089.09C1238.59 1149.41 1170.54 1187 1097.83 1187H494.17C421.457 1187 353.407 1149.41 312.104 1089.09L89.1328 763.913C45.2526 700.023 45.2526 614.977 89.1328 551.087L312.104 225.913Z" fill="url(#paint1_linear_2_1)"/>
  </g>
  <g filter="url(#filter0_f_2_1)">
    <circle cx="450" cy="350" r="180" fill="url(#paint2_radial_2_1)"/>
  </g>
  <g filter="url(#filter1_f_2_1)">
    <circle cx="1250" cy="420" r="220" fill="url(#paint3_radial_2_1)"/>
  </g>
  <g filter="url(#filter2_f_2_1)" opacity="0.7">
    <ellipse cx="780" cy="980" rx="520" ry="160" fill="url(#paint4_radial_2_1)"/>
  </g>
  <defs>
    <filter id="filter0_f_2_1" x="150" y="50" width="600" height="600" filterUnits="userSpaceOnUse" color-interpolation-filters="sRGB">
      <feGaussianBlur stdDeviation="80"/>
    </filter>
    <filter id="filter1_f_2_1" x="930" y="100" width="640" height="640" filterUnits="userSpaceOnUse" color-interpolation-filters="sRGB">
      <feGaussianBlur stdDeviation="80"/>
    </filter>
    <filter id="filter2_f_2_1" x="160" y="740" width="1240" height="480" filterUnits="userSpaceOnUse" color-interpolation-filters="sRGB">
      <feGaussianBlur stdDeviation="80"/>
    </filter>
    <linearGradient id="paint0_linear_2_1" x1="1600" y1="0" x2="160" y2="1200" gradientUnits="userSpaceOnUse">
      <stop offset="0" stop-color="hsl(190, 45%, 98%)"/>
      <stop offset="1" stop-color="hsl(160, 50%, 96%)"/>
    </linearGradient>
    <linearGradient id="paint1_linear_2_1" x1="1440" y1="180" x2="180" y2="1020" gradientUnits="userSpaceOnUse">
      <stop offset="0" stop-color="hsl(180, 55%, 80%)" stop-opacity="0.55"/>
      <stop offset="1" stop-color="hsl(150, 55%, 82%)" stop-opacity="0.05"/>
    </linearGradient>
    <radialGradient id="paint2_radial_2_1" cx="0" cy="0" r="1" gradientUnits="userSpaceOnUse" gradientTransform="translate(450 350) rotate(90) scale(180)">
      <stop offset="0" stop-color="hsl(170, 70%, 70%)" stop-opacity="0.65"/>
      <stop offset="1" stop-color="hsl(180, 55%, 92%)" stop-opacity="0"/>
    </radialGradient>
    <radialGradient id="paint3_radial_2_1" cx="0" cy="0" r="1" gradientUnits="userSpaceOnUse" gradientTransform="translate(1250 420) rotate(90) scale(220)">
      <stop offset="0" stop-color="hsl(150, 65%, 72%)" stop-opacity="0.6"/>
      <stop offset="1" stop-color="hsl(170, 55%, 92%)" stop-opacity="0"/>
    </radialGradient>
    <radialGradient id="paint4_radial_2_1" cx="0" cy="0" r="1" gradientUnits="userSpaceOnUse" gradientTransform="translate(780 980) rotate(90) scale(160 520)">
      <stop offset="0" stop-color="hsl(180, 45%, 75%)" stop-opacity="0.35"/>
      <stop offset="1" stop-color="hsl(160, 45%, 92%)" stop-opacity="0"/>
    </radialGradient>
  </defs>
</svg>
